<svg width="45" height="41" viewBox="0 0 45 41" fill="none" xmlns="http://www.w3.org/2000/svg">
<path d="M26.6783 5.875H20.3216C18.1674 5.875 16.4872 5.875 15.1418 5.98467C13.7749 6.09629 12.6645 6.32738 11.6658 6.83458C10.0071 7.67954 8.65867 9.02801 7.81371 10.6866C7.30454 11.6854 7.07542 12.7957 6.96379 14.1627C6.85413 15.51 6.85413 17.1863 6.85413 19.3425V27.6575C6.85413 29.8117 6.85413 31.492 6.96379 32.8373C7.07542 34.2043 7.3065 35.3146 7.81371 36.3134C8.65867 37.972 10.0071 39.3205 11.6658 40.1654C12.6645 40.6746 13.7749 40.9037 15.1418 41.0153C16.4891 41.125 18.1655 41.125 20.3216 41.125H26.6783C28.8325 41.125 30.5128 41.125 31.8581 41.0153C33.225 40.9037 34.3354 40.6726 35.3342 40.1654C36.9928 39.3205 38.3413 37.972 39.1862 36.3134C39.6954 35.3146 39.9245 34.2043 40.0361 32.8373C40.1458 31.492 40.1458 29.8137 40.1458 27.6575V19.3425C40.1458 17.1883 40.1458 15.508 40.0361 14.1627C39.9245 12.7957 39.6934 11.6854 39.1862 10.6866C38.3413 9.02801 36.9928 7.67954 35.3342 6.83458C34.3354 6.32542 33.225 6.09629 31.8581 5.98467C30.5108 5.875 28.8345 5.875 26.6783 5.875ZM12.5529 8.57946C13.2305 8.23479 14.053 8.03896 15.3004 7.93712C16.5577 7.83333 18.1576 7.83333 20.3666 7.83333H26.6333C28.8423 7.83333 30.4423 7.83333 31.6975 7.93712C32.945 8.03896 33.7675 8.23479 34.4451 8.57946C35.7352 9.23667 36.7841 10.2856 37.4413 11.5757C37.786 12.2533 37.9818 13.0758 38.0837 14.3233C38.1581 15.2182 38.1796 16.2855 38.1855 17.625H8.81246C8.82029 16.2855 8.83988 15.2163 8.91429 14.3233C9.01613 13.0758 9.21196 12.2533 9.55663 11.5757C10.2138 10.2856 11.2627 9.23667 12.5529 8.57946ZM8.81246 19.5833H38.1875V27.6125C38.1875 29.8215 38.1875 31.4215 38.0837 32.6768C37.9818 33.9242 37.786 34.7467 37.4413 35.4243C36.7841 36.7144 35.7352 37.7633 34.4451 38.4205C33.7675 38.7652 32.945 38.961 31.6995 39.0629C30.4423 39.1667 28.8423 39.1667 26.6333 39.1667H20.3666C18.1576 39.1667 16.5577 39.1667 15.3024 39.0629C14.0549 38.961 13.2324 38.7652 12.5548 38.4205C11.2647 37.7633 10.2158 36.7144 9.55858 35.4243C9.21392 34.7467 9.01808 33.9242 8.91625 32.6787C8.81246 31.4215 8.81246 29.8215 8.81246 27.6125V19.5833Z" fill="#7D1D86"/>
<g filter="url(#filter0_d_6_12)">
<line x1="17" y1="12" x2="29" y2="12" stroke="#7D1D86" stroke-width="2" stroke-linecap="round"/>
</g>
<circle cx="23" cy="28" r="2" fill="#7D1D86"/>
<defs>
<filter id="filter0_d_6_12" x="12" y="11" width="22" height="10" filterUnits="userSpaceOnUse" color-interpolation-filters="sRGB">
<feFlood flood-opacity="0" result="BackgroundImageFix"/>
<feColorMatrix in="SourceAlpha" type="matrix" values="0 0 0 0 0 0 0 0 0 0 0 0 0 0 0 0 0 0 127 0" result="hardAlpha"/>
<feOffset dy="4"/>
<feGaussianBlur stdDeviation="2"/>
<feComposite in2="hardAlpha" operator="out"/>
<feColorMatrix type="matrix" values="0 0 0 0 0 0 0 0 0 0 0 0 0 0 0 0 0 0 0.25 0"/>
<feBlend mode="normal" in2="BackgroundImageFix" result="effect1_dropShadow_6_12"/>
<feBlend mode="normal" in="SourceGraphic" in2="effect1_dropShadow_6_12" result="shape"/>
</filter>
</defs>
</svg>
