<svg width="47" height="47" viewBox="0 0 47 47" fill="none" xmlns="http://www.w3.org/2000/svg">
<path d="M31.4477 38.5777C29.5939 37.5818 27.5211 37.0636 25.4167 37.0699C23.3123 37.0636 21.2395 37.5818 19.3856 38.5777M25.4167 26.5155H25.4302M25.4167 21.9922V15.9611M10.339 20.4844C10.339 14.7987 10.339 11.955 12.1061 10.1894C13.8732 8.42381 16.7153 8.4223 22.4011 8.4223H28.4322C34.118 8.4223 36.9617 8.4223 38.7273 10.1894C40.4928 11.9565 40.4944 14.7987 40.4944 20.4844C40.4944 26.1702 40.4944 29.0139 38.7273 30.7795C36.9601 32.5451 34.118 32.5466 28.4322 32.5466H22.4011C16.7153 32.5466 13.8717 32.5466 12.1061 30.7795C10.3405 29.0124 10.339 26.1702 10.339 20.4844Z" stroke="#7D1D86" stroke-width="2" stroke-linecap="round" stroke-linejoin="round"/>
</svg>
