<svg width="47" height="47" viewBox="0 0 47 47" fill="none" xmlns="http://www.w3.org/2000/svg">
<path d="M12.9167 23.125C14.3208 22.0719 16.0578 21.5606 17.8086 21.685C19.5594 21.8094 21.2065 22.5612 22.4477 23.8023C23.6888 25.0435 24.4406 26.6906 24.565 28.4414C24.6894 30.1922 24.1781 31.9292 23.125 33.3333M12.9167 23.125C12.0111 23.8042 11.276 24.6849 10.7698 25.6974C10.2636 26.7099 10 27.8263 10 28.9583C9.99953 29.6916 10.1097 30.4207 10.3267 31.121C10.7233 32.4044 10.4375 33.8335 10.1823 35.181C10.1597 35.2962 10.1671 35.4153 10.2039 35.5267C10.2408 35.6382 10.3057 35.7383 10.3925 35.8173C10.4793 35.8963 10.585 35.9516 10.6994 35.9779C10.8138 36.0041 10.9331 36.0004 11.0456 35.9671C12.2823 35.6287 13.5117 35.34 14.7746 35.8037C15.5808 36.0996 16.4329 36.2506 17.2917 36.25C18.4239 36.2511 19.5407 35.9881 20.5534 35.4817C21.566 34.9754 22.4466 34.2398 23.125 33.3333M12.9167 23.125C12.9167 16.2927 17.1094 10 24.5833 10C26.4543 9.99967 28.2979 10.4493 29.9586 11.311C31.6194 12.1727 33.0485 13.4212 34.1255 14.9512C35.2024 16.4811 35.8956 18.2476 36.1466 20.1017C36.3976 21.9557 36.199 23.843 35.5675 25.6042C34.8733 27.5379 35.6215 30.1279 36.059 32.2658C36.0845 32.3797 36.0792 32.4982 36.0438 32.6094C36.0084 32.7205 35.944 32.8202 35.8573 32.8983C35.7706 32.9764 35.6648 33.03 35.5505 33.0536C35.4363 33.0773 35.3178 33.0701 35.2073 33.0329C33.294 32.435 31.0481 31.595 29.25 32.3533C27.3046 33.1729 25.26 33.3333 23.125 33.3333" stroke="#7D1D86" stroke-width="1.88" stroke-linecap="round" stroke-linejoin="round"/>
</svg>
