<svg width="47" height="47" viewBox="0 0 47 47" fill="none" xmlns="http://www.w3.org/2000/svg">
<path d="M22.6875 7.89062C23.2169 7.89062 23.658 8.33154 23.6582 8.86035C23.6582 9.38936 23.217 9.83105 22.6875 9.83105C19.4049 9.83105 16.9181 9.83074 15.0107 10.04C13.221 10.2365 11.9039 10.6205 10.9014 11.3916L10.7051 11.5508C10.4186 11.787 10.1494 12.0565 9.91309 12.3428C9.03415 13.3677 8.61098 14.7383 8.40137 16.6465C8.19194 18.5531 8.19238 21.039 8.19238 24.3203C8.19238 27.6015 8.19194 30.0876 8.40137 31.9941C8.59787 33.7827 8.98169 35.0986 9.75293 36.1006L9.91309 36.2969C10.1493 36.5831 10.4188 36.8518 10.7051 37.0879V37.0889C11.7305 37.9674 13.1017 38.3901 15.0107 38.5996C16.9181 38.8089 19.4048 38.8086 22.6875 38.8086C25.9701 38.8086 28.4569 38.8089 30.3643 38.5996C32.2733 38.3901 33.6445 37.9674 34.6699 37.0889L34.6689 37.0879C34.9567 36.8506 35.2287 36.5808 35.4658 36.293L35.4648 36.292C36.3413 35.2676 36.7643 33.8995 36.9736 31.9941C37.1831 30.0876 37.1836 27.6015 37.1836 24.3203C37.1836 23.7913 37.6248 23.3496 38.1543 23.3496C38.6838 23.3497 39.125 23.7913 39.125 24.3203C39.125 27.9151 39.1248 30.5889 38.8467 32.6924C38.5697 34.7866 38.02 36.2883 36.9395 37.5488C36.6219 37.9138 36.2889 38.247 35.9238 38.5645C34.6625 39.6451 33.1557 40.1947 31.0576 40.4717C28.9511 40.7497 26.2758 40.75 22.6875 40.75C19.0911 40.75 16.416 40.7497 14.3115 40.4717C12.3465 40.2121 10.9026 39.7127 9.69043 38.7607L9.45117 38.5645L9.44824 38.5615L9.18262 38.3301C9.00939 38.1702 8.84232 37.9992 8.67871 37.8213L8.43555 37.5488C7.35516 36.2884 6.8053 34.7829 6.52832 32.6865C6.25014 30.581 6.25 27.907 6.25 24.3203C6.25 20.7337 6.25016 18.0596 6.52832 15.9541C6.80529 13.8578 7.35422 12.3512 8.43457 11.0908L8.43555 11.0918C8.75307 10.7268 9.08611 10.3936 9.45117 10.0762C10.7124 8.99558 12.2193 8.44589 14.3174 8.16895C16.4239 7.89089 19.0992 7.89063 22.6875 7.89062ZM23.5029 16.0264C24.0324 16.0264 24.4745 16.4682 24.4746 16.9971V31.6426C24.4746 32.1716 24.0325 32.6133 23.5029 32.6133C22.9735 32.6131 22.5322 32.1715 22.5322 31.6426V16.9971C22.5324 16.4683 22.9736 16.0265 23.5029 16.0264ZM28.3877 19.2812C28.9171 19.2814 29.3584 19.723 29.3584 20.252V28.3887C29.3583 28.9175 28.917 29.3592 28.3877 29.3594C27.8582 29.3594 27.4162 28.9176 27.416 28.3887V20.252C27.416 19.7229 27.8582 19.2812 28.3877 19.2812ZM18.6191 20.9092C19.1486 20.9092 19.5897 21.35 19.5898 21.8789V26.7607C19.5898 27.2897 19.1487 27.7314 18.6191 27.7314C18.0896 27.7314 17.6484 27.2898 17.6484 26.7607V21.8789C17.6486 21.35 18.0897 20.9092 18.6191 20.9092ZM13.7334 22.5361C14.2629 22.5362 14.7041 22.9779 14.7041 23.5068V25.1338C14.7041 25.6628 14.2629 26.1044 13.7334 26.1045C13.2039 26.1045 12.7627 25.6628 12.7627 25.1338V23.5068C12.7627 22.9778 13.2039 22.5361 13.7334 22.5361ZM34.0645 6.25C34.8409 6.25 35.5027 6.806 35.6768 7.57031L35.7051 7.72559C35.8039 8.51493 36.1307 9.25577 36.6416 9.85938L36.8721 10.1094C37.5155 10.7525 38.355 11.1625 39.2578 11.2754V11.2764C40.1187 11.3912 40.75 12.0896 40.75 12.916C40.75 13.692 40.1937 14.3534 39.4287 14.5273L39.2734 14.5557C37.4199 14.7823 35.9483 16.2535 35.7217 18.1064C35.6069 18.9667 34.9081 19.5985 34.0811 19.5986C33.3184 19.5986 32.6431 19.041 32.4678 18.2773L32.4395 18.1221C32.2125 16.269 30.7407 14.7983 28.8867 14.5723H28.8877C28.0268 14.4575 27.3957 13.759 27.3955 12.9326C27.3955 12.1058 28.0265 11.4075 28.8691 11.292L28.8701 11.293C29.6595 11.192 30.4003 10.8645 31.0039 10.3535L31.2539 10.123C31.8966 9.48064 32.3081 8.64328 32.4238 7.74219C32.5386 6.8818 33.2373 6.25001 34.0645 6.25ZM33.8535 9.80078C33.2597 11.0812 32.2284 12.1116 30.9473 12.7051L30.458 12.9326L30.9473 13.1592C32.2296 13.7531 33.2593 14.7827 33.8535 16.0645L34.0811 16.5537L34.3076 16.0645C34.9014 14.7838 35.9326 13.7527 37.2139 13.1592L37.7041 12.9326L37.2139 12.7051C35.9328 12.1116 34.9014 11.0812 34.3076 9.80078L34.0811 9.31152L33.8535 9.80078Z" fill="#7D1D86" stroke="#1A1A1A" stroke-width="0.5"/>
</svg>
