<svg width="42" height="42" viewBox="0 0 42 42" fill="none" xmlns="http://www.w3.org/2000/svg">
<path d="M0.895874 11.6666H38.1042M17.5417 29.2916H29.2917M9.7084 29.2916H11.6667M17.5417 21.4583H29.2917M9.7084 21.4583H11.6667M0.895874 19.5C0.895874 10.7306 0.895874 6.3439 3.61992 3.61985C6.344 0.895813 10.7287 0.895813 19.502 0.895813C28.2714 0.895813 32.6561 0.895813 35.3802 3.61985C38.1042 6.3439 38.1042 10.7286 38.1042 19.5C38.1042 28.2694 38.1042 32.6561 35.3802 35.3801C32.6561 38.1041 28.2714 38.1041 19.5 38.1041C10.7306 38.1041 6.3459 38.1041 3.61992 35.3801C0.897834 32.6541 0.895874 28.2714 0.895874 19.5Z" stroke="#7D1D86" stroke-width="1.5" stroke-linecap="round" stroke-linejoin="round"/>
<path d="M35.1666 41.0417C38.4113 41.0417 41.0416 38.4114 41.0416 35.1667C41.0416 31.922 38.4113 29.2917 35.1666 29.2917C31.922 29.2917 29.2916 31.922 29.2916 35.1667C29.2916 38.4114 31.922 41.0417 35.1666 41.0417Z" fill="#7D1D86"/>
<path d="M34.1875 31.25V34.1875H31.25V36.1458H34.1875V39.0833H36.1458V36.1458H39.0833V34.1875H36.1458V31.25H34.1875Z" fill="#FFF9F9"/>
</svg>
