<svg width="47" height="47" viewBox="0 0 47 47" fill="none" xmlns="http://www.w3.org/2000/svg">
<path d="M35.7213 24.9936L37.6988 26.7545C38.0639 27.0593 38.3079 27.4847 38.3866 27.9537C38.4652 28.4228 38.3733 28.9045 38.1275 29.3117L35.7432 33.3848C35.5582 33.6966 35.294 33.954 34.9775 34.1308C34.6573 34.3079 34.2978 34.402 33.9319 34.4042C33.7049 34.4056 33.4791 34.3717 33.2625 34.3036L30.7316 33.468C30.2883 33.7523 29.8274 34.0068 29.3491 34.2314L28.8175 36.7973C28.7192 37.2693 28.4564 37.6911 28.076 37.9873C27.6908 38.2889 27.2132 38.4481 26.7241 38.438H21.7869C21.2978 38.4481 20.8202 38.2889 20.435 37.9873C20.0554 37.6907 19.7934 37.269 19.6957 36.7973L19.1619 34.2314C18.6898 34.0038 18.2318 33.7481 17.7903 33.4658L15.2507 34.3036C15.0341 34.3717 14.8083 34.4056 14.5813 34.4042C14.2161 34.4016 13.8574 34.3076 13.5378 34.1308C13.2216 33.9546 12.9575 33.698 12.7722 33.387L10.3025 29.3117C10.0458 28.9009 9.94767 28.4105 10.0266 27.9325C10.1055 27.4545 10.3561 27.0216 10.7313 26.7151L12.7066 24.2192V23.4448L10.7291 21.6839C10.3639 21.3792 10.1199 20.9538 10.0413 20.4847C9.96262 20.0156 10.0545 19.5339 10.3003 19.1267L12.77 15.0536C12.955 14.7418 13.2191 14.4844 13.5356 14.3076C13.8552 14.1308 14.2139 14.0368 14.5791 14.0342C14.804 14.02 15.0298 14.0407 15.2485 14.0955L17.7378 14.9705C18.1826 14.6861 18.6435 14.4316 19.1203 14.207L19.6541 11.6411C19.7519 11.1694 20.0139 10.7477 20.3935 10.4511C20.7787 10.1495 21.2562 9.99033 21.7453 10.0005H26.641C27.1301 9.99033 27.6076 10.1495 27.9928 10.4511C28.3757 10.7508 28.6382 11.173 28.7322 11.6411L29.266 14.207C29.7399 14.4331 30.1971 14.6883 30.6375 14.9726L33.1794 14.137C33.4615 14.0452 33.7596 14.013 34.0548 14.0424C34.35 14.0718 34.6359 14.1621 34.8944 14.3076C35.2116 14.487 35.4741 14.7451 35.66 15.0514L38.1275 19.1267C38.3877 19.5341 38.4908 20.0222 38.4176 20.5C38.3443 20.9778 38.0997 21.4126 37.7294 21.7233L35.7213 23.4339V24.9936Z" stroke="#7D1D86" stroke-width="1.3"/>
<path d="M29.6881 24.2192C29.6881 25.6696 29.1119 27.0606 28.0864 28.0862C27.0608 29.1118 25.6698 29.688 24.2194 29.688C22.769 29.688 21.378 29.1118 20.3524 28.0862C19.3268 27.0606 18.7506 25.6696 18.7506 24.2192C18.7506 22.7688 19.3268 21.3778 20.3524 20.3522C21.378 19.3266 22.769 18.7505 24.2194 18.7505C25.6698 18.7505 27.0608 19.3266 28.0864 20.3522C29.1119 21.3778 29.6881 22.7688 29.6881 24.2192Z" stroke="#7D1D86" stroke-width="1.3"/>
</svg>
