<svg width="47" height="47" viewBox="0 0 47 47" fill="none" xmlns="http://www.w3.org/2000/svg">
<path d="M26.6783 5.875H20.3216C18.1674 5.875 16.4872 5.875 15.1418 5.98467C13.7749 6.09629 12.6645 6.32738 11.6658 6.83458C10.0071 7.67954 8.65867 9.02801 7.81371 10.6866C7.30454 11.6854 7.07542 12.7957 6.96379 14.1627C6.85413 15.51 6.85413 17.1863 6.85413 19.3425V27.6575C6.85413 29.8117 6.85413 31.492 6.96379 32.8373C7.07542 34.2043 7.3065 35.3146 7.81371 36.3134C8.65867 37.972 10.0071 39.3205 11.6658 40.1654C12.6645 40.6746 13.7749 40.9037 15.1418 41.0153C16.4891 41.125 18.1655 41.125 20.3216 41.125H26.6783C28.8325 41.125 30.5128 41.125 31.8581 41.0153C33.225 40.9037 34.3354 40.6726 35.3342 40.1654C36.9928 39.3205 38.3413 37.972 39.1862 36.3134C39.6954 35.3146 39.9245 34.2043 40.0361 32.8373C40.1458 31.492 40.1458 29.8137 40.1458 27.6575V19.3425C40.1458 17.1883 40.1458 15.508 40.0361 14.1627C39.9245 12.7957 39.6934 11.6854 39.1862 10.6866C38.3413 9.02801 36.9928 7.67954 35.3342 6.83458C34.3354 6.32542 33.225 6.09629 31.8581 5.98467C30.5108 5.875 28.8345 5.875 26.6783 5.875ZM12.5529 8.57946C13.2305 8.23479 14.053 8.03896 15.3004 7.93712C16.5577 7.83333 18.1576 7.83333 20.3666 7.83333H26.6333C28.8423 7.83333 30.4423 7.83333 31.6975 7.93712C32.945 8.03896 33.7675 8.23479 34.4451 8.57946C35.7352 9.23667 36.7841 10.2856 37.4413 11.5757C37.786 12.2533 37.9818 13.0758 38.0837 14.3233C38.1581 15.2182 38.1796 16.2855 38.1855 17.625H8.81246C8.82029 16.2855 8.83988 15.2163 8.91429 14.3233C9.01613 13.0758 9.21196 12.2533 9.55663 11.5757C10.2138 10.2856 11.2627 9.23667 12.5529 8.57946ZM8.81246 19.5833H38.1875V27.6125C38.1875 29.8215 38.1875 31.4215 38.0837 32.6768C37.9818 33.9242 37.786 34.7467 37.4413 35.4243C36.7841 36.7144 35.7352 37.7633 34.4451 38.4205C33.7675 38.7652 32.945 38.961 31.6995 39.0629C30.4423 39.1667 28.8423 39.1667 26.6333 39.1667H20.3666C18.1576 39.1667 16.5577 39.1667 15.3024 39.0629C14.0549 38.961 13.2324 38.7652 12.5548 38.4205C11.2647 37.7633 10.2158 36.7144 9.55858 35.4243C9.21392 34.7467 9.01808 33.9242 8.91625 32.6787C8.81246 31.4215 8.81246 29.8215 8.81246 27.6125V19.5833Z" fill="white"/>
<path d="M16.6459 12.7292C16.6459 12.4695 16.749 12.2204 16.9327 12.0368C17.1163 11.8532 17.3654 11.75 17.625 11.75H29.375C29.6347 11.75 29.8838 11.8532 30.0674 12.0368C30.251 12.2204 30.3542 12.4695 30.3542 12.7292C30.3542 12.9889 30.251 13.2379 30.0674 13.4215C29.8838 13.6052 29.6347 13.7083 29.375 13.7083H17.625C17.3654 13.7083 17.1163 13.6052 16.9327 13.4215C16.749 13.2379 16.6459 12.9889 16.6459 12.7292ZM15.6667 23.5C15.1473 23.5 14.6492 23.7063 14.282 24.0736C13.9147 24.4408 13.7084 24.939 13.7084 25.4583C13.7084 25.9777 13.9147 26.4758 14.282 26.8431C14.6492 27.2103 15.1473 27.4167 15.6667 27.4167C16.1861 27.4167 16.6842 27.2103 17.0515 26.8431C17.4187 26.4758 17.625 25.9777 17.625 25.4583C17.625 24.939 17.4187 24.4408 17.0515 24.0736C16.6842 23.7063 16.1861 23.5 15.6667 23.5ZM31.3334 23.5C30.814 23.5 30.3159 23.7063 29.9486 24.0736C29.5814 24.4408 29.375 24.939 29.375 25.4583C29.375 25.9777 29.5814 26.4758 29.9486 26.8431C30.3159 27.2103 30.814 27.4167 31.3334 27.4167C31.8528 27.4167 32.3509 27.2103 32.7181 26.8431C33.0854 26.4758 33.2917 25.9777 33.2917 25.4583C33.2917 24.939 33.0854 24.4408 32.7181 24.0736C32.3509 23.7063 31.8528 23.5 31.3334 23.5ZM21.5417 25.4583C21.5417 24.939 21.748 24.4408 22.1153 24.0736C22.4826 23.7063 22.9807 23.5 23.5 23.5C24.0194 23.5 24.5175 23.7063 24.8848 24.0736C25.2521 24.4408 25.4584 24.939 25.4584 25.4583C25.4584 25.9777 25.2521 26.4758 24.8848 26.8431C24.5175 27.2103 24.0194 27.4167 23.5 27.4167C22.9807 27.4167 22.4826 27.2103 22.1153 26.8431C21.748 26.4758 21.5417 25.9777 21.5417 25.4583ZM15.6667 31.3333C15.1473 31.3333 14.6492 31.5397 14.282 31.9069C13.9147 32.2742 13.7084 32.7723 13.7084 33.2917C13.7084 33.811 13.9147 34.3092 14.282 34.6764C14.6492 35.0437 15.1473 35.25 15.6667 35.25C16.1861 35.25 16.6842 35.0437 17.0515 34.6764C17.4187 34.3092 17.625 33.811 17.625 33.2917C17.625 32.7723 17.4187 32.2742 17.0515 31.9069C16.6842 31.5397 16.1861 31.3333 15.6667 31.3333ZM21.5417 33.2917C21.5417 32.7723 21.748 32.2742 22.1153 31.9069C22.4826 31.5397 22.9807 31.3333 23.5 31.3333C24.0194 31.3333 24.5175 31.5397 24.8848 31.9069C25.2521 32.2742 25.4584 32.7723 25.4584 33.2917C25.4584 33.811 25.2521 34.3092 24.8848 34.6764C24.5175 35.0437 24.0194 35.25 23.5 35.25C22.9807 35.25 22.4826 35.0437 22.1153 34.6764C21.748 34.3092 21.5417 33.811 21.5417 33.2917Z" fill="white"/>
</svg>
