<svg width="47" height="47" viewBox="0 0 47 47" fill="none" xmlns="http://www.w3.org/2000/svg">
<path d="M9.96436 36.1881V34.6133C9.96436 34.5914 9.98185 34.5739 10.0037 34.5739H27.2084C27.2303 34.5739 27.2478 34.5914 27.2478 34.6133V36.1881C27.2478 36.21 27.2303 36.2275 27.2084 36.2275H10.0037C9.98185 36.2275 9.96436 36.21 9.96436 36.1881ZM9.96436 30.2913V28.7165C9.96436 28.6947 9.98185 28.6772 10.0037 28.6772H22.8952C22.9171 28.6772 22.9346 28.6947 22.9346 28.7165V30.2913C22.9346 30.3132 22.9171 30.3307 22.8952 30.3307H10.0037C9.98185 30.3307 9.96436 30.3132 9.96436 30.2913ZM9.96436 24.3946V22.8198C9.96436 22.7979 9.98185 22.7804 10.0037 22.7804H18.3327C18.3546 22.7804 18.3721 22.7979 18.3721 22.8198V24.3946C18.3721 24.4164 18.3546 24.4339 18.3327 24.4339H10.0037C9.98185 24.4383 9.96436 24.4164 9.96436 24.3946ZM40.5068 8.8259L38.1271 6.48556C37.4709 5.83815 36.4036 5.83815 35.7474 6.48556L33.3764 8.81715L31.2417 10.9125L30.848 11.2975L24.4219 17.5967L22.9434 23.5766L29.1682 22.2773L29.1726 22.2817L38.1271 13.5022L40.5068 11.1619C41.163 10.5188 41.163 9.46894 40.5068 8.8259ZM24.9644 21.5949L25.6686 18.8346L27.9215 21.0612L24.9644 21.5949ZM28.967 20.1514L26.5917 17.8066L33.3677 11.1619L35.743 13.5022L28.967 20.1514ZM36.9416 12.3342L34.5663 9.9895L36.9416 7.65354L39.3213 9.99388L36.9416 12.3342Z" fill="white"/>
<path d="M34.5925 36.8574C34.5925 38.2266 33.4595 39.3377 32.0685 39.3377H10.2049C8.81387 39.3377 7.68089 38.2222 7.68089 36.8574V12.0368C7.68089 10.6675 8.81387 9.55644 10.2049 9.55644H29.0195V7.90289H10.2049C7.88649 7.90289 6.0011 9.75766 6.0011 12.0411V36.8618C6.0011 39.1409 7.88649 41 10.2049 41H32.0685C34.3869 41 36.2723 39.1452 36.2723 36.8618V19.399H34.5925V36.8574Z" fill="white"/>
</svg>
