<svg width="47" height="47" viewBox="0 0 47 47" fill="none" xmlns="http://www.w3.org/2000/svg">
<path d="M8.83274 17.2872L7.82355 16.8224L7.82291 16.8238L8.83274 17.2872ZM12.8038 13.096L12.0807 12.2523L12.0805 12.2524L12.8038 13.096ZM14.9845 11.2271L14.2618 10.3831L14.2614 10.3834L14.9845 11.2271ZM32.0156 11.2249L32.7386 10.3812L32.7385 10.3811L32.0156 11.2249ZM34.1963 13.0938L34.9199 12.2506L34.9193 12.2501L34.1963 13.0938ZM38.1651 17.285L37.1553 17.7485L37.1559 17.7499L38.1651 17.285ZM27.8407 41C27.8407 41.6136 28.3381 42.1111 28.9518 42.1111C29.5654 42.1111 30.0629 41.6136 30.0629 41H27.8407ZM16.9372 41C16.9372 41.6136 17.4347 42.1111 18.0483 42.1111C18.662 42.1111 19.1595 41.6136 19.1595 41H16.9372ZM8.23523 23.0312H9.34634C9.34634 19.9683 9.37002 18.7803 9.84257 17.7507L8.83274 17.2872L7.82291 16.8238C7.10044 18.3979 7.12412 20.1713 7.12412 23.0312H8.23523ZM8.83274 17.2872L9.84193 17.7521C10.3162 16.7225 11.2013 15.9335 13.527 13.9395L12.8038 13.096L12.0805 12.2524C9.90961 14.1138 8.54863 15.2483 7.82355 16.8224L8.83274 17.2872ZM12.8038 13.096L13.5268 13.9396L15.7075 12.0708L14.9845 11.2271L14.2614 10.3834L12.0807 12.2523L12.8038 13.096ZM14.9845 11.2271L15.7071 12.0711C17.763 10.3107 19.2258 9.05876 20.4725 8.23442C21.693 7.42736 22.5906 7.11111 23.5 7.11111V6V4.88889C21.9889 4.88889 20.6622 5.44492 19.2468 6.38077C17.8576 7.29934 16.2729 8.66098 14.2618 10.3831L14.9845 11.2271ZM23.5 6V7.11111C24.4098 7.11111 25.3081 7.42714 26.5287 8.23356C27.7754 9.05721 29.2383 10.3086 31.2927 12.0687L32.0156 11.2249L32.7385 10.3811C30.7281 8.65873 29.1435 7.29762 27.7537 6.37945C26.3379 5.44405 25.0108 4.88889 23.5 4.88889V6ZM32.0156 11.2249L31.2926 12.0686L33.4733 13.9374L34.1963 13.0938L34.9193 12.2501L32.7386 10.3812L32.0156 11.2249ZM34.1963 13.0938L33.4727 13.9369C35.7975 15.9322 36.6832 16.72 37.1553 17.7485L38.1651 17.285L39.175 16.8216C38.452 15.2464 37.0873 14.1108 34.9199 12.2506L34.1963 13.0938ZM38.1651 17.285L37.1559 17.7499C37.6299 18.7788 37.6537 19.9658 37.6537 23.029H38.7648H39.8759C39.8759 20.1694 39.8998 18.395 39.1743 16.8202L38.1651 17.285ZM38.7648 23.029H37.6537V32.2773H38.7648H39.8759V23.029H38.7648ZM38.7648 32.2773H37.6537C37.6537 34.3651 37.6514 35.8186 37.5039 36.9146C37.3608 37.9785 37.0995 38.5382 36.7013 38.9364L37.4869 39.7221L38.2726 40.5078C39.1523 39.6282 39.5299 38.5218 39.7063 37.2109C39.8783 35.9322 39.8759 34.3022 39.8759 32.2773H38.7648ZM37.4869 39.7221L36.7013 38.9364C36.303 39.3347 35.7434 39.596 34.6795 39.7391C33.5834 39.8865 32.1299 39.8889 30.0421 39.8889V41V42.1111C32.067 42.1111 33.6971 42.1135 34.9757 41.9415C36.2866 41.7651 37.393 41.3874 38.2726 40.5078L37.4869 39.7221ZM30.0421 41V39.8889H16.958V41V42.1111H30.0421V41ZM16.958 41V39.8889C14.8701 39.8889 13.4167 39.8865 12.3206 39.7391C11.2567 39.596 10.697 39.3347 10.2988 38.9364L9.51311 39.7221L8.72744 40.5078C9.60707 41.3874 10.7135 41.7651 12.0243 41.9415C13.303 42.1135 14.933 42.1111 16.958 42.1111V41ZM9.51311 39.7221L10.2988 38.9364C9.90054 38.5382 9.63928 37.9785 9.49616 36.9146C9.3487 35.8186 9.34634 34.3651 9.34634 32.2773H8.23523H7.12412C7.12412 34.3022 7.12176 35.9322 7.29377 37.2109C7.47012 38.5218 7.8478 39.6282 8.72744 40.5078L9.51311 39.7221ZM8.23523 32.2773H9.34634V23.0312H8.23523H7.12412V32.2773H8.23523ZM28.9518 41H30.0629V30.0966H28.9518H27.8407V41H28.9518ZM28.9518 30.0966H30.0629C30.0629 29.2235 29.7161 28.3862 29.0987 27.7689L28.3131 28.5546L27.5274 29.3403C27.728 29.5408 27.8407 29.8129 27.8407 30.0966H28.9518ZM28.3131 28.5546L29.0987 27.7689C28.4814 27.1516 27.6441 26.8048 26.7711 26.8048V27.9159V29.027C27.0547 29.027 27.3268 29.1397 27.5274 29.3403L28.3131 28.5546ZM26.7711 27.9159V26.8048H20.229V27.9159V29.027H26.7711V27.9159ZM20.229 27.9159V26.8048C19.356 26.8048 18.5187 27.1516 17.9014 27.7689L18.687 28.5546L19.4727 29.3403C19.6733 29.1397 19.9454 29.027 20.229 29.027V27.9159ZM18.687 28.5546L17.9014 27.7689C17.284 28.3862 16.9372 29.2235 16.9372 30.0966H18.0483H19.1595C19.1595 29.8129 19.2721 29.5408 19.4727 29.3403L18.687 28.5546ZM18.0483 30.0966H16.9372V41H18.0483H19.1595V30.0966H18.0483Z" fill="white"/>
</svg>
