<svg width="47" height="47" viewBox="0 0 47 47" fill="none" xmlns="http://www.w3.org/2000/svg">
<path d="M22.7642 36.9469C22.1128 36.9469 21.5569 36.7153 21.0966 36.252C20.8852 36.0398 20.7224 35.8078 20.6081 35.556C20.3798 35.0531 20.8539 34.5844 21.4062 34.5844H24.131C24.6833 34.5844 25.1577 35.0532 24.9297 35.5562C24.8145 35.8101 24.6501 36.0435 24.4362 36.2564C23.972 36.7167 23.4147 36.9469 22.7642 36.9469ZM13.2603 33.1202C12.8564 33.1202 12.5289 32.7927 12.5289 32.3888C12.5289 31.9848 12.8564 31.6574 13.2603 31.6574H13.8928C14.4451 31.6574 14.8928 31.2096 14.8928 30.6574V20.0675C14.8928 18.1561 15.4975 16.4753 16.7067 15.0252C17.7431 13.7824 19.0173 12.941 20.5294 12.5012C20.9745 12.3717 21.3058 11.9795 21.3058 11.5159C21.3058 11.1093 21.4477 10.764 21.7315 10.4803C22.0153 10.1955 22.36 10.0531 22.7657 10.0531C23.1714 10.0531 23.5171 10.1955 23.8028 10.4803C24.0885 10.765 24.2314 11.1102 24.2314 11.5159C24.2314 11.9802 24.5618 12.373 25.0059 12.5084C25.301 12.5983 25.587 12.7049 25.8639 12.8281C26.0896 12.9286 26.3081 13.0365 26.5195 13.1517C26.9332 13.377 26.9833 13.9321 26.6503 14.2652C26.3982 14.5172 26.0061 14.5543 25.6905 14.3886C25.3483 14.209 24.9877 14.0579 24.6088 13.9354C24.0295 13.7482 23.4161 13.6546 22.7686 13.6546C20.9908 13.6546 19.4773 14.2787 18.228 15.527C16.9788 16.7752 16.3547 18.2887 16.3556 20.0675V30.6574C16.3556 31.2096 16.8034 31.6574 17.3556 31.6574H32.2769C32.6808 31.6574 33.0083 31.9848 33.0083 32.3888C33.0083 32.7927 32.6808 33.1202 32.2769 33.1202H13.2603ZM27.6866 26.125L27.352 25.7877C26.9643 25.3967 26.9791 24.7707 27.2679 24.3019C27.3809 24.1185 27.48 23.926 27.5652 23.7245C27.7807 23.2145 27.8884 22.684 27.8884 22.133C27.8884 21.582 27.7807 21.0495 27.5652 20.5356C27.4444 20.2478 27.2957 19.9789 27.119 19.729C26.8876 19.4017 26.8808 18.9453 27.1643 18.6618C27.4506 18.3755 27.9202 18.3765 28.1672 18.6974C28.4845 19.1094 28.7387 19.5476 28.93 20.0119C29.2108 20.6907 29.3512 21.3977 29.3512 22.133C29.3512 22.8673 29.2108 23.5744 28.93 24.2541C28.6501 24.9328 28.2356 25.556 27.6866 26.1235M30.8234 29.2575C30.5342 28.9707 30.5359 28.5053 30.8005 28.1958C31.4351 27.4534 31.9385 26.6271 32.3105 25.7169C32.7757 24.5788 33.0083 23.3852 33.0083 22.1359C33.0083 20.8867 32.7757 19.6921 32.3105 18.552C31.9384 17.6401 31.435 16.8125 30.8002 16.069C30.5357 15.7593 30.5344 15.294 30.8238 15.0074C31.1113 14.7228 31.577 14.7223 31.8436 15.0266C32.6194 15.9123 33.2285 16.8982 33.6709 17.9845C34.2044 19.2951 34.4711 20.678 34.4711 22.133C34.4711 23.588 34.2044 24.9704 33.6709 26.2801C33.2286 27.3661 32.6196 28.3522 31.844 29.2384C31.5773 29.5432 31.111 29.5426 30.8234 29.2575Z" fill="white"/>
</svg>
