<svg width="47" height="47" viewBox="0 0 47 47" fill="none" xmlns="http://www.w3.org/2000/svg">
<path d="M8.79036 15.8983H37.9116V13.7052C37.9116 12.2993 36.7785 10.7594 35.2626 10.926L9.63822 14.0562C9.14339 14.1165 8.79036 14.5159 8.79036 15.0144V15.8983ZM11.3926 33.0787C10.2881 33.0787 10.2881 31.3991 11.3926 31.3991H26.0382C27.1428 31.3991 27.1428 33.0787 26.0382 33.0787H11.3926ZM11.3926 27.438C10.2881 27.438 10.2881 25.7584 11.3926 25.7584H26.0382C27.1428 25.7584 27.1428 27.438 26.0382 27.438H11.3926ZM11.3926 21.7973C10.2881 21.7973 10.2881 20.1177 11.3926 20.1177H26.0382C27.1428 20.1177 27.1428 21.7973 26.0382 21.7973H11.3926ZM33.609 19.9941C35.3436 19.9941 36.7495 21.4001 36.7495 23.1346C36.7495 24.8692 35.3436 26.2751 33.609 26.2751C31.8744 26.2751 30.4685 24.8692 30.4685 23.1346C30.4685 21.4001 31.8744 19.9941 33.609 19.9941ZM33.609 21.6737C32.8021 21.6737 32.1481 22.3277 32.1481 23.1346C32.1481 23.9416 32.8021 24.5955 33.609 24.5955C34.4159 24.5955 35.0699 23.9416 35.0699 23.1346C35.0699 22.3277 34.4159 21.6737 33.609 21.6737ZM39.5912 15.8983H39.7908C40.2546 15.8983 40.6308 16.2744 40.6308 16.7383V36.9257C40.6308 37.3891 40.2546 37.7653 39.7908 37.7653H7.20915C6.74532 37.7653 6.36914 37.3891 6.36914 36.9257V16.7383C6.36914 16.3075 6.69324 15.9528 7.11076 15.904V15.0144C7.11076 13.6788 8.1091 12.5515 9.43483 12.3898L35.067 9.25923C37.5891 8.9682 39.5912 11.3154 39.5912 13.7052V15.8983ZM38.9512 17.5779H8.04874V36.0857H38.9512V17.5779Z" fill="white"/>
</svg>
