<svg width="47" height="47" viewBox="0 0 47 47" fill="none" xmlns="http://www.w3.org/2000/svg">
<g clip-path="url(#clip0_121_29)">
<path d="M17.625 14.6875H38.1875C38.9663 14.6865 39.7129 14.3767 40.2636 13.8261C40.8142 13.2754 41.124 12.5288 41.125 11.75V5.875C41.124 5.09622 40.8142 4.34962 40.2636 3.79895C39.7129 3.24827 38.9663 2.93847 38.1875 2.9375H17.625C16.8462 2.93847 16.0996 3.24827 15.5489 3.79895C14.9983 4.34962 14.6885 5.09622 14.6875 5.875V7.34375H8.8125V2.9375H5.875V36.7188C5.87597 37.4975 6.18577 38.2441 6.73645 38.7948C7.28712 39.3455 8.03372 39.6553 8.8125 39.6562H14.6875V41.125C14.6885 41.9038 14.9983 42.6504 15.5489 43.2011C16.0996 43.7517 16.8462 44.0615 17.625 44.0625H38.1875C38.9663 44.0615 39.7129 43.7517 40.2636 43.2011C40.8142 42.6504 41.124 41.9038 41.125 41.125V35.25C41.124 34.4712 40.8142 33.7246 40.2636 33.1739C39.7129 32.6233 38.9663 32.3135 38.1875 32.3125H17.625C16.8462 32.3135 16.0996 32.6233 15.5489 33.1739C14.9983 33.7246 14.6885 34.4712 14.6875 35.25V36.7188H8.8125V24.9688H14.6875V26.4375C14.6885 27.2163 14.9983 27.9629 15.5489 28.5136C16.0996 29.0642 16.8462 29.374 17.625 29.375H38.1875C38.9663 29.374 39.7129 29.0642 40.2636 28.5136C40.8142 27.9629 41.124 27.2163 41.125 26.4375V20.5625C41.124 19.7837 40.8142 19.0371 40.2636 18.4864C39.7129 17.9358 38.9663 17.626 38.1875 17.625H17.625C16.8462 17.626 16.0996 17.9358 15.5489 18.4864C14.9983 19.0371 14.6885 19.7837 14.6875 20.5625V22.0312H8.8125V10.2812H14.6875V11.75C14.6885 12.5288 14.9983 13.2754 15.5489 13.8261C16.0996 14.3767 16.8462 14.6865 17.625 14.6875ZM17.625 5.875H38.1875L38.1893 11.75H17.625V5.875ZM17.625 35.25H38.1875L38.1893 41.125H17.625V35.25ZM17.625 20.5625H38.1875L38.1893 26.4375H17.625V20.5625Z" fill="white"/>
</g>
<defs>
<clipPath id="clip0_121_29">
<rect width="47" height="47" fill="white"/>
</clipPath>
</defs>
</svg>
