<svg width="47" height="47" viewBox="0 0 47 47" fill="none" xmlns="http://www.w3.org/2000/svg">
<path d="M29.3749 41.125C31.538 41.125 33.2916 39.3714 33.2916 37.2083C33.2916 35.0452 31.538 33.2917 29.3749 33.2917C27.2118 33.2917 25.4583 35.0452 25.4583 37.2083C25.4583 39.3714 27.2118 41.125 29.3749 41.125Z" stroke="white" stroke-width="2" stroke-linecap="round" stroke-linejoin="round"/>
<path d="M40.9291 38.775C41.581 38.4465 42.1281 37.9425 42.5087 37.3196C42.8894 36.6968 43.0884 35.9799 43.0833 35.25V15.6667C43.0833 14.6279 42.6706 13.6317 41.9361 12.8972C41.2016 12.1626 40.2054 11.75 39.1666 11.75H23.6958C23.0408 11.7564 22.3946 11.5984 21.8164 11.2905C21.2382 10.9826 20.7465 10.5346 20.3862 9.9875L18.8 7.6375C18.4433 7.09596 17.9578 6.65144 17.387 6.34382C16.8162 6.0362 16.178 5.87511 15.5295 5.875H7.83329C6.79453 5.875 5.79831 6.28765 5.06379 7.02216C4.32927 7.75668 3.91663 8.7529 3.91663 9.79167V35.25C3.91663 36.2888 4.32927 37.285 5.06379 38.0195C5.79831 38.754 6.79453 39.1667 7.83329 39.1667H17.8208M29.375 21.5417V19.5833M29.375 33.2917V29.375" stroke="white" stroke-width="2" stroke-linecap="round" stroke-linejoin="round"/>
</svg>
