<svg width="47" height="47" viewBox="0 0 47 47" fill="none" xmlns="http://www.w3.org/2000/svg">
<path d="M4.89587 15.6667H42.1042M21.5417 33.2917H33.2917M13.7084 33.2917H15.6667M21.5417 25.4583H33.2917M13.7084 25.4583H15.6667M4.89587 23.5C4.89587 14.7306 4.89587 10.3439 7.61992 7.61989C10.344 4.89584 14.7287 4.89584 23.502 4.89584C32.2714 4.89584 36.6561 4.89584 39.3802 7.61989C42.1042 10.3439 42.1042 14.7286 42.1042 23.5C42.1042 32.2694 42.1042 36.6561 39.3802 39.3801C36.6561 42.1042 32.2714 42.1042 23.5 42.1042C14.7306 42.1042 10.3459 42.1042 7.61992 39.3801C4.89783 36.6541 4.89587 32.2714 4.89587 23.5Z" stroke="white" stroke-width="1.5" stroke-linecap="round" stroke-linejoin="round"/>
<path d="M39.1666 45.0417C42.4113 45.0417 45.0416 42.4114 45.0416 39.1667C45.0416 35.922 42.4113 33.2917 39.1666 33.2917C35.922 33.2917 33.2916 35.922 33.2916 39.1667C33.2916 42.4114 35.922 45.0417 39.1666 45.0417Z" fill="white"/>
<path d="M38.1875 35.25V38.1875H35.25V40.1458H38.1875V43.0833H40.1458V40.1458H43.0833V38.1875H40.1458V35.25H38.1875Z" fill="#7F3D98"/>
</svg>
