<svg width="47" height="47" viewBox="0 0 47 47" fill="none" xmlns="http://www.w3.org/2000/svg">
<g clip-path="url(#clip0_119_2)">
<path d="M23.5 32.3125C21.7571 32.3125 20.0532 31.7957 18.604 30.8273C17.1548 29.859 16.0253 28.4827 15.3583 26.8724C14.6913 25.2621 14.5168 23.4902 14.8568 21.7808C15.1969 20.0713 16.0362 18.5011 17.2686 17.2686C18.5011 16.0362 20.0713 15.1969 21.7808 14.8568C23.4902 14.5168 25.2621 14.6913 26.8724 15.3583C28.4827 16.0253 29.859 17.1548 30.8273 18.604C31.7957 20.0532 32.3125 21.7571 32.3125 23.5C32.3099 25.8364 31.3806 28.0764 29.7285 29.7285C28.0764 31.3806 25.8364 32.3099 23.5 32.3125ZM23.5 17.625C22.338 17.625 21.2022 17.9696 20.236 18.6151C19.2699 19.2607 18.5169 20.1782 18.0722 21.2517C17.6275 22.3253 17.5112 23.5065 17.7379 24.6462C17.9646 25.7858 18.5241 26.8326 19.3458 27.6543C20.1674 28.4759 21.2142 29.0354 22.3538 29.2621C23.4935 29.4888 24.6748 29.3725 25.7483 28.9278C26.8218 28.4831 27.7393 27.7301 28.3849 26.764C29.0304 25.7978 29.375 24.662 29.375 23.5C29.3733 21.9424 28.7537 20.4491 27.6523 19.3477C26.5509 18.2463 25.0576 17.6268 23.5 17.625Z" fill="white"/>
<path d="M23.5 38.1875C21.4339 38.1861 19.3914 37.7495 17.5053 36.9061C15.6192 36.0628 13.9319 34.8317 12.5532 33.2929L14.7417 31.3336C16.0483 32.7944 17.6997 33.9051 19.5453 34.5647C21.3909 35.2243 23.3722 35.4117 25.3088 35.1098C27.2453 34.808 29.0756 34.0266 30.633 32.8367C32.1904 31.6468 33.4254 30.0862 34.2256 28.297C35.0257 26.5079 35.3656 24.547 35.2143 22.5929C35.063 20.6388 34.4253 18.7536 33.3592 17.109C32.2932 15.4643 30.8327 14.1124 29.1107 13.1764C27.3887 12.2405 25.4599 11.7501 23.5 11.75V8.8125C27.3953 8.8125 31.1312 10.3599 33.8856 13.1144C36.64 15.8688 38.1875 19.6046 38.1875 23.5C38.1875 27.3954 36.64 31.1312 33.8856 33.8856C31.1312 36.6401 27.3953 38.1875 23.5 38.1875Z" fill="white"/>
<path d="M23.5 44.0625C19.4331 44.0625 15.4576 42.8565 12.0761 40.5971C8.69461 38.3377 6.05906 35.1262 4.50274 31.3689C2.94641 27.6116 2.5392 23.4772 3.33261 19.4885C4.12602 15.4997 6.08441 11.8358 8.96013 8.96013C11.8358 6.08441 15.4997 4.12602 19.4885 3.33261C23.4772 2.5392 27.6116 2.94641 31.3689 4.50274C35.1262 6.05906 38.3377 8.69461 40.5971 12.0761C42.8565 15.4576 44.0625 19.4331 44.0625 23.5C44.0564 28.9516 41.888 34.1782 38.0331 38.0331C34.1782 41.888 28.9516 44.0564 23.5 44.0625ZM23.5 5.87501C20.0141 5.87501 16.6065 6.9087 13.7081 8.84536C10.8097 10.782 8.55063 13.5347 7.21663 16.7552C5.88264 19.9758 5.5336 23.5196 6.21367 26.9385C6.89373 30.3574 8.57235 33.4979 11.0373 35.9628C13.5022 38.4277 16.6426 40.1063 20.0615 40.7863C23.4805 41.4664 27.0243 41.1174 30.2448 39.7834C33.4654 38.4494 36.218 36.1903 38.1547 33.2919C40.0913 30.3935 41.125 26.9859 41.125 23.5C41.1197 18.8272 39.2611 14.3473 35.9569 11.0431C32.6527 7.73896 28.1728 5.88034 23.5 5.87501Z" fill="white"/>
</g>
<defs>
<clipPath id="clip0_119_2">
<rect width="47" height="47" fill="white"/>
</clipPath>
</defs>
</svg>
