<svg width="47" height="47" viewBox="0 0 47 47" fill="none" xmlns="http://www.w3.org/2000/svg">
<g clip-path="url(#clip0_121_19)">
<path d="M23.7096 2.31836C12.0289 2.31836 2.55994 11.7876 2.55994 23.4682C2.55994 35.1496 12.0289 44.6184 23.7096 44.6184C35.3902 44.6184 44.8604 35.1496 44.8604 23.4682C44.8604 11.7876 35.3902 2.31836 23.7096 2.31836ZM23.7096 41.6276C13.6808 41.6276 5.55055 33.4971 5.55055 23.4682C5.55055 13.4395 13.6808 5.30897 23.7096 5.30897C33.739 5.30897 41.8689 13.4395 41.8689 23.4682C41.8689 33.4971 33.7388 41.6276 23.7096 41.6276Z" fill="white"/>
<path d="M40.0707 23.4682C40.0707 32.5043 32.7456 39.8294 23.7097 39.8294C14.6739 39.8294 7.34961 32.5043 7.34961 23.4682C7.34961 14.4326 14.6739 7.10782 23.7097 7.10782C32.7456 7.10782 40.0707 14.4326 40.0707 23.4682Z" fill="white"/>
<path d="M36.7992 14.7869L23.6742 10.4119C23.5616 10.3742 23.4397 10.3742 23.327 10.4119L10.202 14.7869C10.0933 14.8233 9.99884 14.8929 9.93187 14.9858C9.8649 15.0788 9.82882 15.1905 9.82874 15.3051V26.2426C9.82874 26.3876 9.88635 26.5267 9.98891 26.6293C10.0915 26.7318 10.2306 26.7894 10.3756 26.7894C10.5207 26.7894 10.6598 26.7318 10.7623 26.6293C10.8649 26.5267 10.9225 26.3876 10.9225 26.2426V16.0639L16.9217 18.0641C16.181 19.059 15.6755 20.2089 15.4434 21.4273C15.2112 22.6458 15.2584 23.901 15.5813 25.0986C15.9043 26.2962 16.4946 27.4049 17.3079 28.3415C18.1212 29.278 19.1363 30.0179 20.2768 30.5055C17.4248 31.2902 14.9448 33.1209 13.1989 35.7896C13.1265 35.911 13.104 36.0557 13.136 36.1933C13.168 36.3309 13.252 36.4508 13.3704 36.5279C13.4888 36.605 13.6325 36.6332 13.7713 36.6067C13.91 36.5802 14.0332 36.501 14.1149 36.3857C16.2778 33.0676 19.6998 31.1644 23.5006 31.1644C27.3014 31.1644 30.7235 33.0676 32.8864 36.3844C32.968 36.4996 33.0912 36.5788 33.23 36.6053C33.3687 36.6318 33.5124 36.6036 33.6308 36.5265C33.7493 36.4495 33.8333 36.3296 33.8652 36.1919C33.8972 36.0543 33.8747 35.9097 33.8024 35.7883C32.0633 33.1195 29.5764 31.2889 26.7244 30.5041C27.8649 30.0165 28.88 29.2766 29.6933 28.3401C30.5066 27.4036 31.0969 26.2948 31.4199 25.0972C31.7428 23.8996 31.79 22.6444 31.5579 21.426C31.3257 20.2075 30.8202 19.0576 30.0795 18.0627L36.7992 15.8219C36.9077 15.7853 37.0019 15.7156 37.0686 15.6226C37.1354 15.5297 37.1713 15.4181 37.1713 15.3037C37.1713 15.1893 37.1354 15.0777 37.0686 14.9848C37.0019 14.8918 36.9077 14.8221 36.7992 14.7855V14.7869ZM30.61 22.9613C30.61 24.1021 30.3355 25.2262 29.8097 26.2385C29.2839 27.2509 28.5222 28.1219 27.5889 28.7779C26.6556 29.4339 25.5781 29.8557 24.4475 30.0076C23.3168 30.1596 22.1662 30.0372 21.0929 29.6508C20.0195 29.2645 19.0548 28.6255 18.2804 27.7878C17.506 26.9502 16.9445 25.9385 16.6434 24.8382C16.3423 23.7378 16.3103 22.5812 16.5503 21.4659C16.7903 20.3507 17.2952 19.3095 18.0223 18.4305L23.327 20.1982C23.4396 20.2365 23.5616 20.2365 23.6742 20.1982L28.9789 18.4305C30.0346 19.7042 30.6116 21.307 30.61 22.9613ZM23.5006 19.1031L12.1051 15.3051L23.5006 11.507L34.8961 15.3051L23.5006 19.1031Z" fill="black"/>
</g>
<defs>
<clipPath id="clip0_121_19">
<rect width="47" height="47" fill="white"/>
</clipPath>
</defs>
</svg>
